# xmcd
#
# Track frame offsets:
#	150
#	17173
#	32685
#	49116
#	66386
#	87570
#	103792
#	124079
#	141404
#	156568
#
# Disc length: 2351 seconds
#
# Revision: 0
# Processed by: cddbd v1.5.2PL0 Copyright (c) Steve Scherf et al.
# Submitted via: audiograbber 1.82.02
#
DISCID=93092d0a
DTITLE=Etta James - Stickin' To My Guns
DYEAR=1990
DGENRE=Blues
TTITLE0=Whatever Gets You Through The Night
TTITLE1=Love To Burn
TTITLE2=The Blues Don't Care
TTITLE3=Your Good Thing (Is About To End)
TTITLE4=Get Funky - (With Def Jef)
TTITLE5=Beware
TTITLE6=Out Of The Rain
TTITLE7=Stolen Affection
TTITLE8=A Fool In Love
TTITLE9=I've Got Dreams To Remember
EXTD=
EXTT0=
EXTT1=
EXTT2=
EXTT3=
EXTT4=
EXTT5=
EXTT6=
EXTT7=
EXTT8=
EXTT9=
PLAYORDER=
